<?xml version="1.0" ?><svg data-name="Layer 3" id="Layer_3" viewBox="0 0 32 32" xmlns="http://www.w3.org/2000/svg"><defs><style>.cls-1{fill:#0832ff;}.cls-2{fill:none;stroke:#0832ff;stroke-miterlimit:10;}</style></defs><title/><rect class="cls-1" height="2" rx="1" ry="1" transform="translate(-7.27 16.39) rotate(-45)" width="26.29" x="3.01" y="15.97"/><line class="cls-2" x1="5.83" x2="10.77" y1="17.23" y2="22.17"/><line class="cls-2" x1="7.63" x2="12.25" y1="16.12" y2="20.73"/><line class="cls-2" x1="8.19" x2="13.69" y1="13.81" y2="19.3"/><line class="cls-2" x1="8.87" x2="15.1" y1="11.63" y2="17.86"/><line class="cls-2" x1="10.22" x2="16.56" y1="10.09" y2="16.43"/><line class="cls-2" x1="11.95" x2="17.96" y1="8.99" y2="15"/><line class="cls-2" x1="14.19" x2="19.37" y1="8.38" y2="13.56"/><path class="cls-1" d="M8,23h2.95l2-2H8a2,2,0,0,1,0-4h.12a1,1,0,0,0,1-1.14A6.07,6.07,0,0,1,9,15a6,6,0,0,1,11.73-1.74l1.54-1.54A8,8,0,0,0,7,15s0,.08,0,.13A4,4,0,0,0,8,23Z"/><path class="cls-1" d="M24.84,12.53l-1.56,1.56A3.5,3.5,0,0,1,22.5,21H16.37l-2,2H22.5a5.5,5.5,0,0,0,2.34-10.47Z"/></svg>